# xmcd
# Track frame offsets:
# 150
# 12203
# 24232
# 38077
# 53541
# 67203
# 78099
# 90542
# 104195
# 120111
# 135863
# 149050
# 159620
# 181708
# 191718
# 200305
# 214680
# 226708
# 240956
# 254048
#
# Disc length: 3570 seconds
# Revision: 0
# Processed by: cddbd v1.5.2PL0 Copyright (c) Steve Scherf et al.
# Submitted via: VisiTrax 2.11.1.266 - For more info visit www.synapsa.com
#
DISCID=010df014
DTITLE=Dolly Parton - Both Sides Of Dolly Parton
DYEAR=2010
DGENRE=Country
TTITLE0=Jolene
TTITLE1=Bargain Store
TTITLE2=Coat Of Many Colours
TTITLE3=Applejack
TTITLE4=Two Doors Down
TTITLE5=Shattered Image
TTITLE6=Living On Memories Of You
TTITLE7=My Tennessee Mountain Home
TTITLE8=Heartbreaker
TTITLE9=Sure Thing
TTITLE10=Here You Come Again
TTITLE11=Love Is Like A Butterfly
TTITLE12=Light Of A Clear Blue Morning
TTITLE13=Travelling Man
TTITLE14=Randy
TTITLE15=Lonely Coming Down
TTITLE16=Joshua
TTITLE17=Sweet Music Man
TTITLE18=Higher And Higher
TTITLE19=The Seeker
EXTD=
EXTT0=
EXTT1=
EXTT2=
EXTT3=
EXTT4=
EXTT5=
EXTT6=
EXTT7=
EXTT8=
EXTT9=
EXTT10=
EXTT11=
EXTT12=
EXTT13=
EXTT14=
EXTT15=
EXTT16=
EXTT17=
EXTT18=
EXTT19=
PLAYORDER=
